<svg id="visual" viewBox="0 0 900 600" width="900" height="600" xmlns="http://www.w3.org/2000/svg" xmlns:xlink="http://www.w3.org/1999/xlink" version="1.1"><rect x="0" y="0" width="900" height="600" fill="#FFFFFF"></rect><path d="M0 444L21.5 429.5C43 415 86 386 128.8 374C171.7 362 214.3 367 257.2 369C300 371 343 370 385.8 372.8C428.7 375.7 471.3 382.3 514.2 380.5C557 378.7 600 368.3 642.8 376.7C685.7 385 728.3 412 771.2 416.2C814 420.3 857 401.7 878.5 392.3L900 383L900 601L878.5 601C857 601 814 601 771.2 601C728.3 601 685.7 601 642.8 601C600 601 557 601 514.2 601C471.3 601 428.7 601 385.8 601C343 601 300 601 257.2 601C214.3 601 171.7 601 128.8 601C86 601 43 601 21.5 601L0 601Z" fill="#3dd17f"></path><path d="M0 416L21.5 412.2C43 408.3 86 400.7 128.8 410.5C171.7 420.3 214.3 447.7 257.2 458.2C300 468.7 343 462.3 385.8 461.7C428.7 461 471.3 466 514.2 457C557 448 600 425 642.8 424.8C685.7 424.7 728.3 447.3 771.2 460.3C814 473.3 857 476.7 878.5 478.3L900 480L900 601L878.5 601C857 601 814 601 771.2 601C728.3 601 685.7 601 642.8 601C600 601 557 601 514.2 601C471.3 601 428.7 601 385.8 601C343 601 300 601 257.2 601C214.3 601 171.7 601 128.8 601C86 601 43 601 21.5 601L0 601Z" fill="#70db9e"></path><path d="M0 508L21.5 501.3C43 494.7 86 481.3 128.8 472.7C171.7 464 214.3 460 257.2 459C300 458 343 460 385.8 457.7C428.7 455.3 471.3 448.7 514.2 454.2C557 459.7 600 477.3 642.8 484.5C685.7 491.7 728.3 488.3 771.2 486.8C814 485.3 857 485.7 878.5 485.8L900 486L900 601L878.5 601C857 601 814 601 771.2 601C728.3 601 685.7 601 642.8 601C600 601 557 601 514.2 601C471.3 601 428.7 601 385.8 601C343 601 300 601 257.2 601C214.3 601 171.7 601 128.8 601C86 601 43 601 21.5 601L0 601Z" fill="#9ae3bb"></path><path d="M0 540L21.5 532.7C43 525.3 86 510.7 128.8 503.5C171.7 496.3 214.3 496.7 257.2 498.5C300 500.3 343 503.7 385.8 504.5C428.7 505.3 471.3 503.7 514.2 505C557 506.3 600 510.7 642.8 507.7C685.7 504.7 728.3 494.3 771.2 489.8C814 485.3 857 486.7 878.5 487.3L900 488L900 601L878.5 601C857 601 814 601 771.2 601C728.3 601 685.7 601 642.8 601C600 601 557 601 514.2 601C471.3 601 428.7 601 385.8 601C343 601 300 601 257.2 601C214.3 601 171.7 601 128.8 601C86 601 43 601 21.5 601L0 601Z" fill="#c3ebd6"></path><path d="M0 534L21.5 540.5C43 547 86 560 128.8 565.3C171.7 570.7 214.3 568.3 257.2 564.3C300 560.3 343 554.7 385.8 547.8C428.7 541 471.3 533 514.2 530.5C557 528 600 531 642.8 539.2C685.7 547.3 728.3 560.7 771.2 564.8C814 569 857 564 878.5 561.5L900 559L900 601L878.5 601C857 601 814 601 771.2 601C728.3 601 685.7 601 642.8 601C600 601 557 601 514.2 601C471.3 601 428.7 601 385.8 601C343 601 300 601 257.2 601C214.3 601 171.7 601 128.8 601C86 601 43 601 21.5 601L0 601Z" fill="#ebf1ee"></path></svg>