<svg id="visual" viewBox="0 0 900 600" width="900" height="600" xmlns="http://www.w3.org/2000/svg" xmlns:xlink="http://www.w3.org/1999/xlink" version="1.1"><rect x="0" y="0" width="900" height="600" fill="#327451"></rect><path d="M0 409L21.5 406C43 403 86 397 128.8 396.7C171.7 396.3 214.3 401.7 257.2 399.2C300 396.7 343 386.3 385.8 379.3C428.7 372.3 471.3 368.7 514.2 367.3C557 366 600 367 642.8 379.5C685.7 392 728.3 416 771.2 425.2C814 434.3 857 428.7 878.5 425.8L900 423L900 601L878.5 601C857 601 814 601 771.2 601C728.3 601 685.7 601 642.8 601C600 601 557 601 514.2 601C471.3 601 428.7 601 385.8 601C343 601 300 601 257.2 601C214.3 601 171.7 601 128.8 601C86 601 43 601 21.5 601L0 601Z" fill="#3dd17f"></path><path d="M0 463L21.5 463.2C43 463.3 86 463.7 128.8 453.8C171.7 444 214.3 424 257.2 421.2C300 418.3 343 432.7 385.8 434.3C428.7 436 471.3 425 514.2 425.8C557 426.7 600 439.3 642.8 447.2C685.7 455 728.3 458 771.2 452.3C814 446.7 857 432.3 878.5 425.2L900 418L900 601L878.5 601C857 601 814 601 771.2 601C728.3 601 685.7 601 642.8 601C600 601 557 601 514.2 601C471.3 601 428.7 601 385.8 601C343 601 300 601 257.2 601C214.3 601 171.7 601 128.8 601C86 601 43 601 21.5 601L0 601Z" fill="#70db9e"></path><path d="M0 445L21.5 452C43 459 86 473 128.8 481C171.7 489 214.3 491 257.2 492.7C300 494.3 343 495.7 385.8 486.3C428.7 477 471.3 457 514.2 456.2C557 455.3 600 473.7 642.8 482.8C685.7 492 728.3 492 771.2 483.3C814 474.7 857 457.3 878.5 448.7L900 440L900 601L878.5 601C857 601 814 601 771.2 601C728.3 601 685.7 601 642.8 601C600 601 557 601 514.2 601C471.3 601 428.7 601 385.8 601C343 601 300 601 257.2 601C214.3 601 171.7 601 128.8 601C86 601 43 601 21.5 601L0 601Z" fill="#9ae3bb"></path><path d="M0 491L21.5 496.8C43 502.7 86 514.3 128.8 521.2C171.7 528 214.3 530 257.2 522.7C300 515.3 343 498.7 385.8 493.5C428.7 488.3 471.3 494.7 514.2 496.8C557 499 600 497 642.8 497C685.7 497 728.3 499 771.2 506.7C814 514.3 857 527.7 878.5 534.3L900 541L900 601L878.5 601C857 601 814 601 771.2 601C728.3 601 685.7 601 642.8 601C600 601 557 601 514.2 601C471.3 601 428.7 601 385.8 601C343 601 300 601 257.2 601C214.3 601 171.7 601 128.8 601C86 601 43 601 21.5 601L0 601Z" fill="#c3ebd6"></path><path d="M0 526L21.5 532.2C43 538.3 86 550.7 128.8 554C171.7 557.3 214.3 551.7 257.2 547C300 542.3 343 538.7 385.8 539.7C428.7 540.7 471.3 546.3 514.2 548.3C557 550.3 600 548.7 642.8 550.8C685.7 553 728.3 559 771.2 556.7C814 554.3 857 543.7 878.5 538.3L900 533L900 601L878.5 601C857 601 814 601 771.2 601C728.3 601 685.7 601 642.8 601C600 601 557 601 514.2 601C471.3 601 428.7 601 385.8 601C343 601 300 601 257.2 601C214.3 601 171.7 601 128.8 601C86 601 43 601 21.5 601L0 601Z" fill="#ebf1ee"></path></svg>